<svg width="129" height="91" viewBox="0 0 129 91" fill="none" xmlns="http://www.w3.org/2000/svg">
<g clip-path="url(#clip0_1_298)">
<path d="M15.6919 23.9335C19.4129 23.5883 23.5513 24.8312 26.5121 27.0611C35.9072 34.1369 36.8428 47.8452 34.7907 58.3987C33.1118 67.0338 27.9046 75.9803 18.6438 77.352C16.3299 77.7007 13.965 77.4184 11.7974 76.5356C5.94232 74.1005 2.07712 68.0155 0.960758 61.9318C0.274287 58.1908 0.193778 53.4072 1.68015 49.8691C0.889854 48.5264 0.422875 47.001 0.195919 45.4275C-1.00189 37.1229 3.86195 27.878 11.774 24.8018C12.9961 24.3267 14.3931 24.1146 15.6919 23.9335ZM8.22985 39.6612C11.1067 36.9169 14.7317 34.7884 18.9042 34.7016C19.4866 34.6895 21.2142 34.7683 21.2095 35.5378C20.8866 36.2202 19.3738 36.8182 18.6555 37.0722C14.4616 38.5551 10.3184 42.4955 8.41314 46.5172L8.43031 46.6116C9.19277 50.6985 12.2229 52.311 14.1116 55.6479C14.7666 56.8052 13.9784 58.1988 12.6868 58.3582C9.94795 58.7488 8.07029 57.8361 5.99939 56.145C6.47164 60.6332 7.80214 66.1862 11.4238 69.1547C15.6832 72.6499 20.5987 71.1407 23.7399 66.9521C28.0994 61.138 28.6412 52.8179 27.8986 45.8342C27.314 40.3371 24.2521 31.5413 17.4152 32.0406C12.8739 32.5235 9.8269 35.4974 8.22985 39.6612Z" fill="#E52522"/>
<path d="M11.8147 18.2828C11.7131 16.8242 11.7402 16.5115 12.1342 15.1136C13.3208 10.8896 14.5673 6.57763 16.463 2.61521C16.9316 1.63566 17.7658 -0.168858 19.0192 0.163525C20.0253 0.430281 21.1381 0.781793 22.1341 1.09611L26.8396 2.56845L45.1521 8.60188L53.0518 11.1919C54.8439 11.7831 56.3104 11.9915 57.8352 13.1814C59.0991 14.1873 59.9277 15.6423 60.1491 17.2443L73.8793 23.6514L78.2372 25.7151C79.1288 26.1466 80.1735 26.6958 81.0757 27.0645C80.6521 27.8791 80.1012 29.4477 79.7844 30.3511C79.4589 31.2777 78.7755 33.0487 78.5773 33.9784L78.6018 34.0157C78.914 33.5101 79.4715 31.9604 79.6869 31.3479C80.1298 30.086 80.7516 28.5609 81.1168 27.2787C81.3117 26.7287 81.4443 26.5454 81.7618 26.0654C81.7844 26.5727 81.7936 26.8857 81.8884 27.3806C83.1778 27.8289 84.4167 28.6729 85.8864 28.7118C86.0654 28.7165 87.0643 28.5412 87.3017 28.5019C87.3653 28.5816 87.419 28.6137 87.4117 28.729C87.1969 31.3063 85.9016 34.1234 84.5559 36.308C84.1681 36.9384 83.1307 36.185 82.5772 36.0235C81.6418 35.7506 80.6044 35.2618 79.6233 35.2108C79.2136 35.1896 79.0917 35.6084 78.8232 35.744C78.6389 35.5253 78.5872 35.2744 78.497 34.9971C75.2376 33.8245 71.0852 33.146 67.6746 32.4139C63.8442 31.5915 59.9216 30.7568 56.1515 29.7043C55.6359 29.9314 55.0754 30.2626 54.5681 30.5302C51.3681 32.2181 47.4197 30.3442 44.2479 29.2826L33.7498 25.7701L20.3572 21.473C18.9024 21.0207 17.4567 20.5637 16.0084 20.0908C14.9066 19.731 13.7711 19.4571 12.6804 19.0578C12.2216 18.8899 12.0853 18.6578 11.8147 18.2828ZM37.4886 16.0845C36.4422 16.7714 35.4048 17.4719 34.3765 18.1859C39.1614 18.6307 38.1259 17.8931 39.2164 22.5772C39.5208 21.6494 40.4797 19.7269 40.9693 18.8372C41.5064 18.6234 43.6145 18.8237 44.5424 18.7524C43.8942 18.168 42.2844 16.8133 41.8477 16.165C42.0992 15.3629 42.7843 13.2051 43.1505 12.5208C42.0563 13.164 40.8849 13.8255 39.8158 14.4984C38.9112 14.0234 37.7948 12.9276 36.9766 12.574C36.9683 13.2841 37.3826 15.1456 37.4886 16.0845Z" fill="#FEEB01"/>
<path d="M59.3659 18.763C59.5892 18.9855 59.6109 19.5463 59.6434 19.8672C59.8536 21.9453 58.6927 25.9314 57.329 27.5126L57.2589 27.4936C57.2573 27.3077 57.9015 26.2596 58.0399 25.9169C58.7063 24.2674 59.216 22.4267 59.3969 20.6536C59.4515 20.1182 59.3674 19.3191 59.3659 18.763Z" fill="#FCFEE5"/>
<path d="M92.3994 43.7366C105.625 43.2762 106.298 64.5695 99.6668 72.0082C98.0407 73.8322 95.9101 75.362 93.419 75.538C91.5383 75.5798 90.4856 75.52 88.7429 74.6001C86.1039 73.2065 84.2451 70.1577 83.3814 67.3852C82.6303 64.9733 82.3108 61.2656 83.5404 58.9534C83.1414 58.0593 82.7808 57.2609 82.6747 56.2852C82.3751 53.5307 82.9637 50.3453 84.7529 48.1688C87.0353 45.3915 88.9212 44.1864 92.3994 43.7366ZM87.2633 53.2013C89.14 51.266 90.5798 50.5185 93.232 50.0432C93.7484 49.9507 94.5134 49.9315 94.9933 50.1402L95.1087 50.2736C95.0159 51.1211 90.7349 52.2656 90.013 53.6959C89.6365 54.4427 87.842 55.8229 87.8049 56.9919C87.2573 58.9999 92.0116 61.8667 90.2609 63.2676C89.1572 64.1504 87.0565 63.1401 86.076 62.329L86.1967 63.6362C86.7495 67.1799 88.3372 72.1876 92.9397 71.6144C94.4902 71.4211 96.1282 70.0102 96.9946 68.7714C99.3135 65.2942 99.6933 59.5698 98.9714 55.5434C98.5604 53.2494 97.924 50.8641 95.9227 49.4855C94.992 48.8444 93.6927 48.3964 92.5671 48.4954C89.7836 49.0843 88.0263 50.369 87.2633 53.2013Z" fill="#E52522"/>
<path d="M73.6486 41.4739C76.9512 41.644 78.3844 45.6329 78.7609 48.3902C78.9147 49.511 78.8855 50.5979 78.8895 51.7234C78.9034 55.8109 78.3897 59.8959 77.9336 63.9511C77.7208 65.8594 77.3768 68.0507 77.5955 69.9823C77.6353 70.335 77.9966 70.5536 78.2697 70.7336C78.6986 70.5801 79.6558 70.0507 80.0105 70.0972C81.8553 70.2593 81.1354 72.7834 80.1928 73.6602C74.3705 79.083 71.1687 69.5313 71.7627 64.9554C71.9059 63.8514 71.8747 62.4074 71.9324 61.3566L72.2665 54.2869C72.3116 53.2009 72.6477 48.5191 72.0212 47.9351C69.9318 47.6648 68.8042 53.7304 68.4131 55.2458C67.9119 57.1812 67.3935 59.1121 66.8573 61.0378C66.4138 62.6625 66.1466 64.0667 65.1881 65.4682C64.6296 66.2586 63.418 67.0856 62.4266 66.8392C60.3096 66.3138 60.306 63.4728 60.1249 61.7319C59.9728 60.2686 59.9033 58.798 59.9185 57.3313C59.9228 56.7813 59.9508 56.0912 59.6415 55.6264C59.0075 55.2472 58.27 56.1384 58.0476 56.6438C56.4644 60.246 55.781 64.2646 53.994 67.781C53.7232 68.3138 53.1174 68.9508 52.5143 69.065C50.8795 69.4104 49.8778 67.1932 49.4693 65.9258C48.5326 63.0192 46.5942 56.0646 48.4895 53.4625C49.0415 52.7193 49.8686 52.2299 50.7846 52.1045C52.9458 51.8142 53.9954 53.4061 54.2724 55.3099C54.5604 55.3036 54.8763 55.2755 55.166 55.2558C55.796 54.784 56.057 54.3213 56.492 53.6754C57.6971 51.8865 58.9969 49.8521 61.3883 49.7926C63.3312 49.7443 63.9817 51.0119 65.6408 51.6095C65.9385 51.4746 66.2533 51.328 66.4277 51.0404C66.9056 50.2498 67.1483 49.3512 67.4737 48.4787C68.315 46.2261 69.5148 43.9102 71.3683 42.3303C72.0365 41.7612 72.8068 41.576 73.6486 41.4739Z" fill="#E52522"/>
<path d="M42.5416 38.2811C43.4562 38.2464 44.442 38.5198 45.0583 39.2201C48.2169 42.8095 46.609 49.5435 45.8126 53.75C44.7875 58.9348 43.9258 64.3197 43.8835 69.603C43.8294 76.3443 52.0768 71.7226 54.8918 69.8362C55.4642 69.4529 57.2088 68.3603 57.7966 68.4519C60.3783 68.8558 56.6834 71.7591 55.9695 72.3935C53.2418 74.5742 50.7842 76.3829 47.2837 77.1893C45.3373 77.6376 43.2659 77.4822 41.5625 76.3769C37.5696 73.7864 37.1234 68.3862 36.9345 64.0594C36.7028 58.1782 37.1052 52.2889 38.1346 46.4942C38.5235 44.3255 38.9202 41.8556 40.1056 39.9671C40.7349 38.9645 41.4078 38.5245 42.5416 38.2811Z" fill="#E52522"/>
<path d="M120.445 43.3363C122.307 43.2692 124.454 43.9389 125.914 45.1097C127.567 46.4471 128.631 48.3796 128.879 50.4935C129.14 52.8513 127.776 58.0308 126.255 59.8787C125.865 60.3523 125.217 60.8856 124.575 60.9155C124.369 60.9248 124.206 60.8644 124.067 60.7116C123.205 59.7691 123.945 54.2793 123.968 52.8133C123.987 51.5469 123.878 50.222 122.926 49.2751C122.231 48.5847 121.212 48.3108 120.252 48.3304C117.824 48.3799 114.723 49.9494 113.055 51.6861C111.956 52.8297 111.038 54.5427 111.1 56.1716C111.132 56.9979 111.472 57.692 111.935 58.3556C114.142 61.5153 118.255 61.9405 121.546 63.3945C122.879 63.983 124.208 64.8066 125.257 65.8269C126.466 67.0032 127.386 68.7721 127.4 70.4871C127.412 71.9478 126.683 73.1873 125.691 74.2055C123.954 75.8674 122.071 76.5131 119.687 76.4832C117.316 76.4546 114.74 75.6144 113.087 73.8508C112.411 73.1295 110.397 70.6559 111.458 69.6715C112.085 69.4516 112.742 70.3995 113.111 70.8684C115.285 73.6376 119.356 74.254 122.407 72.6798C123.223 72.2586 123.499 71.7014 123.733 70.8445C123.28 68.9156 121.993 68.1451 120.239 67.4682C118.348 66.7382 116.352 66.2487 114.46 65.5253C112.915 64.9508 111.474 64.1278 110.195 63.0876C104.855 58.6698 105.518 52.2811 110.344 47.7775C113.295 45.023 116.448 43.6548 120.445 43.3363Z" fill="#E52522"/>
<path d="M88.2656 33.987C89.5138 34.9829 90.6036 38.2107 91.0285 39.8023C91.12 40.1442 91.3056 40.9307 91.6026 41.0995C92.29 40.7305 92.3026 40.3266 92.7686 39.8448C93.574 39.0122 95.6675 39.1768 96.7878 39.1758L99.3247 39.1778C100.015 39.1805 102.133 39.0902 102.603 39.609C103.169 40.2344 102.28 41.0774 101.789 41.4199C102.073 41.8084 102.192 41.8481 102.572 42.1376C103.197 42.6128 103.526 43.2472 103.778 43.967C104.135 44.9866 104.19 47.1483 103.698 48.0967L103.612 48.1208C103.292 47.7447 102.843 46.8979 102.551 46.4329C101.256 44.3654 98.5504 43.0661 96.2177 42.5896C95.0629 42.3398 93.4527 42.2757 92.284 42.4381C89.2354 42.8615 86.076 43.9992 84.204 46.5823C83.6113 47.3998 83.1467 48.2281 82.5971 49.0679C81.8321 50.059 80.44 49.5427 80.4374 48.2833C80.4334 46.7376 81.2528 45.236 82.2259 44.094C82.8749 43.3331 84.0986 42.4994 85.0956 42.3796C85.7366 42.3555 86.4916 42.3978 87.1883 42.3607C87.3819 42.2301 87.71 42.0494 87.8406 41.8741C89.1525 40.1111 87.2593 38.6496 87.2149 36.9029C87.187 35.8151 87.5821 34.7583 88.2656 33.987Z" fill="#FEEB01"/>
<path d="M59.6931 81.3195C62.2762 81.3016 62.2186 83.2139 62.1754 85.1641C62.1482 86.3942 62.2392 87.6689 62.1286 88.8957C62.0122 90.187 61.3243 90.658 60.1801 90.9436C59.5779 90.9535 59.0834 90.9183 58.5426 90.5915C58.0921 90.3218 57.7676 89.8835 57.6412 89.3727C57.404 88.4002 57.5623 84.7077 57.569 83.5181C57.5707 83.2132 57.7693 82.5144 57.9555 82.2488C58.4218 81.5839 58.9552 81.455 59.6931 81.3195ZM58.9089 89.0857C59.568 89.9618 60.4799 90.019 60.7405 88.8326C61.0494 87.4258 60.746 85.7566 60.8817 84.3079C60.9241 83.8555 60.8154 83.1402 60.47 82.816C60.2784 82.638 60.0222 82.547 59.7616 82.5643C59.3871 82.5908 59.1319 82.8432 58.9037 83.1069C58.8283 84.0953 58.8572 85.2498 58.8568 86.2567C58.8563 87.0804 58.8254 88.2846 58.9089 89.0857Z" fill="white"/>
<path d="M5.46655 81.443C7.59101 81.538 9.81868 80.9289 9.89882 84.0893C9.93124 85.366 9.90724 86.6586 9.91075 87.9372C9.91321 88.8512 9.83035 89.6251 9.17746 90.3271C8.16369 91.1541 6.84856 90.7908 5.55942 90.9077L5.47716 90.9157C5.38359 87.9054 5.45482 84.4733 5.46655 81.443ZM6.79175 89.5972C7.3112 89.5752 7.75773 89.6071 8.2142 89.3647C8.51621 88.9509 8.52841 88.6015 8.52503 88.102C8.51515 86.6274 8.57548 85.1435 8.47114 83.6742C8.40113 82.6871 7.49442 82.6831 6.77034 82.715C6.9474 84.8857 6.65188 87.443 6.79175 89.5972Z" fill="white"/>
<path d="M112.175 81.4471C114.062 81.5241 116.387 81.0047 116.514 83.7539C116.548 84.8094 116.552 85.8748 116.538 86.931C116.522 88.1399 116.673 89.3169 115.828 90.2926C115 91.0632 113.332 90.8998 112.213 90.9091C112.149 89.8011 112.18 88.4481 112.182 87.3242C112.192 85.3654 112.189 83.4059 112.175 81.4471ZM113.502 89.5813C114.008 89.5726 114.462 89.6397 114.852 89.3435C115.25 88.7742 115.228 88.0807 115.218 87.4039C115.198 86.1299 115.291 84.8326 115.15 83.5673C115.046 82.632 114.22 82.7064 113.499 82.7184C113.538 84.9894 113.486 87.3029 113.502 89.5813Z" fill="white"/>
<path d="M51.446 81.455C52.8062 81.453 55.621 81.164 55.7135 83.2258C55.7972 85.0937 56.186 88.6692 55.2098 90.2375C54.1817 91.0744 52.7753 90.8678 51.4456 90.8678L51.446 81.455ZM52.7521 89.5845C53.2585 89.5739 53.7726 89.639 54.1636 89.3487C54.5892 88.5862 54.5561 86.7815 54.4996 85.8741C54.3771 83.9073 55.0641 82.7097 52.7273 82.7091C52.8081 84.907 52.7474 87.364 52.7521 89.5845Z" fill="white"/>
<path d="M35.5783 81.4477L36.4993 81.4557C38.1684 81.4251 39.813 81.6848 39.8209 83.8622C39.8242 84.7562 39.4449 85.279 38.8125 85.8602C39.3974 86.1724 39.69 86.4374 39.8716 87.1143C40.2033 88.3504 39.979 90.4288 38.4894 90.7769C37.6593 90.9708 36.52 90.8499 35.6478 90.8838C35.5314 90.6533 35.5792 82.3311 35.5783 81.4477ZM38.4383 89.3574C38.7824 88.7051 38.9774 87.1575 38.1641 86.7164C37.9066 86.5769 37.1701 86.5729 36.8409 86.551L36.8515 89.6895C37.4682 89.6809 37.937 89.7353 38.4383 89.3574ZM36.8471 85.459C37.4201 85.4364 37.7541 85.473 38.2199 85.1169C38.64 84.284 38.9152 83.2531 37.8833 82.737C37.6192 82.6048 37.1723 82.5955 36.8726 82.5722C36.7953 83.1807 36.843 84.7689 36.8471 85.459Z" fill="white"/>
<path d="M92.1992 81.4457C92.7036 81.441 93.2088 81.4424 93.7132 81.449C95.5203 81.4908 96.5538 82.2308 96.3887 84.1617C96.3211 84.9568 96.1036 85.3075 95.5077 85.827C95.8816 86.1053 96.1361 86.3139 96.3144 86.7589C96.6704 87.645 96.6081 88.9934 96.2574 89.8728C95.226 91.1927 93.7563 90.8937 92.2164 90.9097C92.1899 87.7552 92.1839 84.6001 92.1992 81.4457ZM93.5879 89.7041C94.1587 89.6762 94.4981 89.7008 94.9913 89.3966C95.269 88.8107 95.4765 88.001 95.2598 87.3733C95.1504 87.0545 94.9111 86.7974 94.6015 86.6666C94.347 86.5576 93.8147 86.5742 93.5197 86.5736C93.5899 87.6224 93.5329 88.6553 93.5879 89.7041ZM93.8524 82.5782C93.5959 82.6267 93.6469 82.5629 93.5455 82.7044C93.5521 83.4457 93.5303 84.6586 93.5999 85.3613C93.7835 85.4583 93.8551 85.4537 94.0579 85.4769C95.1113 85.172 95.5488 84.185 95.0085 83.1667C94.7666 82.711 94.3251 82.6646 93.8524 82.5782Z" fill="white"/>
<path d="M103.298 81.4476C105.297 81.4324 107.696 81.251 107.447 84.2049C107.386 84.9329 107.098 85.3553 106.532 85.8063C107.871 86.7223 107.872 88.2932 107.407 89.6994C106.672 91.2238 104.755 90.8459 103.311 90.917C103.221 87.8688 103.291 84.5137 103.298 81.4476ZM104.593 89.7167C105.189 89.6828 105.537 89.7173 106.044 89.4038C106.455 88.7728 106.601 87.2052 105.879 86.719C105.639 86.5569 104.908 86.5689 104.583 86.5629L104.593 89.7167ZM104.597 85.4583C105.124 85.4324 105.362 85.447 105.834 85.1906C106.314 84.4068 106.572 83.2431 105.601 82.7223C105.366 82.5968 104.912 82.5908 104.64 82.5715C104.531 82.9196 104.589 84.9787 104.597 85.4583Z" fill="white"/>
<path d="M78.6171 81.4423C79.5803 81.445 81.5159 81.3174 82.1689 82.0494C83.0592 83.0471 82.6614 85.896 82.7363 87.1594C82.8 88.2241 82.7907 89.5241 82.0927 90.2899C81.1653 91.0697 79.8441 90.8366 78.6231 90.9103C78.5554 87.8322 78.6091 84.5317 78.6171 81.4423ZM79.8057 89.5686C80.4062 89.5619 80.7483 89.6383 81.2156 89.2969C81.6333 88.4467 81.3555 85.3952 81.4324 84.3092C81.5325 82.8884 81.1122 82.6891 79.8023 82.717L79.8057 89.5686Z" fill="white"/>
<path d="M64.0498 81.4463C66.8607 81.4403 68.8189 81.0989 68.4457 85.1089C68.38 85.8103 67.9717 86.2846 67.4076 86.6606C67.7874 88.0933 68.2713 89.4689 68.6445 90.9382L67.3134 90.893C67.1643 90.5224 67.0556 90.1073 66.9429 89.7213C66.6764 88.7927 66.4172 87.8621 66.1646 86.9302L65.3459 86.9043L65.342 90.9143C64.8252 90.8778 64.5696 90.8831 64.0506 90.9143C63.9981 87.8044 64.0418 84.5629 64.0498 81.4463ZM65.3473 85.7333C66.0115 85.7047 66.3098 85.7645 66.856 85.4065C67.3015 84.6725 67.4122 83.4051 66.5842 82.909C66.2044 82.6818 65.7682 82.7057 65.3406 82.713L65.3473 85.7333Z" fill="white"/>
<path d="M25.8694 81.4476C28.7213 81.4071 30.6604 81.2198 30.2723 85.1242C30.2037 85.8136 29.7853 86.2839 29.2339 86.6592C29.649 87.9983 30.1711 89.5885 30.47 90.9355C30.0346 90.9448 29.5837 90.9369 29.147 90.9342C29.015 90.6134 28.9145 90.1956 28.8203 89.8548C28.5415 88.8824 28.2822 87.9053 28.0424 86.9222C27.69 86.9289 27.5104 86.9116 27.1587 86.8691L27.1664 90.8651C26.687 90.8591 26.3465 90.8731 25.8676 90.909C25.8339 87.7764 25.8612 84.5821 25.8694 81.4476ZM27.1619 85.7306C27.7528 85.7153 28.1812 85.7651 28.6656 85.4184C29.1094 84.6512 29.3102 83.4058 28.4203 82.8897C28.0097 82.6519 27.5939 82.7017 27.1406 82.713C27.1789 83.714 27.1657 84.7283 27.1619 85.7306Z" fill="white"/>
<path d="M71.4127 81.4522L73.29 81.4409C73.6672 84.4951 74.35 87.7738 74.7689 90.8711L73.4856 90.8724C73.3258 90.1026 73.2071 89.3958 73.1733 88.6094L71.532 88.61C71.3948 89.3938 71.3305 90.0972 71.1654 90.9076C70.7478 90.9016 70.2785 90.9189 69.8562 90.9242C69.9987 89.7684 70.2553 88.4519 70.4515 87.2862L71.4127 81.4522ZM71.6964 87.4443L72.405 87.4357C72.6397 87.4383 72.7053 87.4715 72.8989 87.3765C72.9128 87.1248 72.4249 83.6907 72.3262 83.4655C72.1048 84.248 71.8277 86.5296 71.6964 87.4443Z" fill="white"/>
<path d="M119.373 81.4483L121.134 81.457C121.585 84.5643 122.228 87.7765 122.62 90.8652L121.332 90.8718C121.208 90.0761 121.121 89.4098 121.046 88.6081C120.508 88.6081 119.971 88.6048 119.432 88.5975C119.289 89.3999 119.208 90.0442 119.121 90.8539L117.769 90.8705C117.812 90.4766 117.898 90.0475 117.966 89.6536C118.441 86.9269 118.838 84.1637 119.373 81.4483ZM119.561 87.4563L120.229 87.4377C120.471 87.447 120.561 87.4849 120.763 87.3919C120.798 87.0319 120.335 83.8216 120.142 83.6616C119.985 84.8406 119.81 86.3132 119.561 87.4563Z" fill="white"/>
<path d="M41.5337 81.4397L42.9505 81.439L42.9436 86.0295C42.9428 87.0784 42.8549 88.3258 43.1081 89.3314C43.7115 89.9286 44.5851 89.7579 44.6989 88.8784C44.8153 87.9777 44.7745 86.9488 44.7754 86.0335C44.7714 84.5078 44.7812 82.9827 44.8046 81.4576L46.1165 81.4496L46.1235 86.0442C46.1302 87.5234 46.4887 90.3457 44.5816 90.8512C43.3628 91.174 42.084 90.6672 41.7058 89.3766C41.4251 88.5849 41.5615 82.7456 41.5337 81.4397Z" fill="white"/>
<path d="M16.4538 81.3215L16.5361 81.3181C18.3951 81.2471 18.9105 82.0866 18.9556 83.7911C18.5534 83.7698 18.1239 83.7871 17.7192 83.7944C17.6849 83.4882 17.6583 83.0691 17.4523 82.8499C16.7542 82.1086 16.0188 82.7017 16.0806 83.5918C16.0973 84.2853 16.5907 84.7834 17.0914 85.2152C18.1157 86.098 19.1641 86.99 19.132 88.4872C19.1177 89.1541 18.9475 89.9319 18.437 90.4195C17.9928 90.8439 17.4424 90.9495 16.8482 90.9389C15.1358 91.0212 14.7167 89.6337 14.734 88.2215C15.1461 88.2262 15.5738 88.2175 15.9873 88.2155C16.0275 88.7715 16.0304 89.2856 16.56 89.6131C16.9532 89.8569 17.4159 89.6941 17.6115 89.2883C17.955 88.5995 17.6768 87.6848 17.1196 87.1614C15.7011 85.8289 13.881 84.4646 14.9861 82.254C15.2649 81.6967 15.8784 81.4835 16.4538 81.3215Z" fill="white"/>
<path d="M125.475 81.3194L125.542 81.3154C127.424 81.2131 127.811 82.1304 127.796 83.7837L126.709 83.789C126.585 83.1082 126.211 82.0354 125.251 82.8392C124.482 83.4848 125.74 84.8644 126.283 85.3427C127.14 86.0979 128.144 87.1441 128.167 88.3882C128.204 89.8674 127.451 90.9189 125.914 90.9461C124.089 91.0146 123.739 89.7127 123.717 88.2188L124.98 88.2234C125.006 88.7588 125.021 89.2935 125.534 89.6024C125.719 89.7166 125.943 89.7492 126.153 89.6934C126.681 89.5506 126.869 88.9402 126.771 88.4632C126.267 85.991 122.543 85.5519 123.939 82.3483C124.207 81.7345 124.866 81.4921 125.475 81.3194Z" fill="white"/>
<path d="M84.3253 81.4437L88.2914 81.4497C88.2775 81.8589 88.2894 82.3265 88.2914 82.741C87.4687 82.7084 86.5042 82.7297 85.6709 82.7277L85.6491 85.4238L87.6331 85.4218C87.6238 85.8443 87.6311 86.2893 87.6325 86.7144C87.014 86.6905 86.2994 86.7064 85.6736 86.7044C85.7054 87.3634 85.6875 87.9997 85.6749 88.6586L85.663 89.5979C86.4213 89.5474 87.5052 89.5793 88.2874 89.5812L88.2834 90.8951C87.1704 90.844 85.4303 90.8453 84.3359 90.917C84.2311 87.9552 84.3213 84.4434 84.3253 81.4437Z" fill="white"/>
<path d="M97.9989 81.4456C99.3055 81.4463 100.641 81.4609 101.945 81.4409L101.942 82.7435C101.071 82.7289 100.201 82.7262 99.3301 82.7362C99.3228 83.6303 99.3062 84.5389 99.3082 85.431L101.296 85.4177L101.287 86.7216C100.629 86.7057 99.9697 86.7057 99.3115 86.7216C99.3095 87.1035 99.2578 89.346 99.3658 89.5632C99.5428 89.5845 99.6496 89.5931 99.8272 89.5977C100.443 89.5366 101.314 89.5665 101.95 89.5698L101.951 90.9428C100.68 90.9169 99.2883 90.9428 98.0096 90.9441C97.985 90.4234 97.989 89.9577 97.9956 89.4357L97.9989 81.4456Z" fill="white"/>
<path d="M20.0423 81.4476C21.5492 81.4197 23.1326 81.443 24.645 81.4423C24.6383 81.8581 24.6505 82.3052 24.6544 82.7236L22.9218 82.721L22.921 89.2896L22.923 90.8465C22.4981 90.8399 22.0506 90.8512 21.6237 90.8545C21.6084 88.1444 21.608 85.4344 21.6225 82.7243L20.0365 82.715L20.0423 81.4476Z" fill="white"/>
<path d="M48.0081 81.4503C48.4685 81.4549 48.929 81.4563 49.3895 81.4543L49.3935 90.8705C48.9454 90.8658 48.474 90.8798 48.0239 90.8857C47.9654 87.7579 48.037 84.5861 48.0081 81.4503Z" fill="white"/>
<path d="M11.7983 81.5313L12.9896 81.5094C13.0002 84.616 12.9391 87.6682 12.9878 90.7848L11.8707 90.7928C11.8827 88.7157 11.8826 86.638 11.8702 84.5603C11.8644 83.7745 11.8899 82.252 11.7983 81.5313Z" fill="white"/>
<path d="M109.124 81.4464C109.555 81.453 110.015 81.4411 110.45 81.4377C110.396 84.5417 110.437 87.7891 110.427 90.9071L109.146 90.9396C109.038 87.9452 109.103 84.4613 109.124 81.4464Z" fill="white"/>
<path d="M32.2284 81.445C32.6615 81.4503 33.1015 81.4457 33.5353 81.4463C33.4943 84.5795 33.5263 87.7805 33.5277 90.9176L32.2337 90.9283C32.2121 87.7672 32.2103 84.6061 32.2284 81.445Z" fill="white"/>
<path d="M81.0757 27.0645L81.1168 27.2787C80.7516 28.5609 80.1298 30.086 79.687 31.3479C79.4715 31.9604 78.914 33.5101 78.6018 34.0157L78.5773 33.9784C78.7755 33.0487 79.4589 31.2777 79.7844 30.3511C80.1013 29.4477 80.6521 27.8791 81.0757 27.0645Z" fill="#FCFEE5" fill-opacity="0.0156863"/>
</g>
<defs>
<clipPath id="clip0_1_298">
<rect width="129" height="91" fill="white"/>
</clipPath>
</defs>
</svg>
